<?xml version="1.0" encoding="UTF-8"?>
<svg width="370px" height="153px" viewBox="0 0 370 153" version="1.1" xmlns="http://www.w3.org/2000/svg" xmlns:xlink="http://www.w3.org/1999/xlink">
    <title>index-logo</title>
    <g id="Pages" stroke="none" stroke-width="1" fill="none" fill-rule="evenodd">
        <g id="Index" transform="translate(-1095.000000, -133.000000)" fill-rule="nonzero">
            <g id="index-logo" transform="translate(1094.996000, 133.000000)">
                <path d="M119.864,11.43 C127.004,9 127.594,0 120.514,0 C118.564,0 116.234,1.37 114.634,4.17 L105.004,20.73 C104.606756,21.4354827 104.148328,22.1047197 103.634,22.73 C101.174,19.34 101.894,14.28 105.344,12.06 L104.004,10.27 C96.544,15.02 98.734,28.75 111.184,28.75 C121.784,28.74 126.704,16 119.864,11.43 L119.864,11.43 Z M111.074,26 C109.285874,26.0455384 107.517061,25.621437 105.944,24.77 C106.607186,23.9780396 107.202616,23.1317259 107.724,22.24 L113.724,11.87 L114.724,11.97 C123.004,13.72 119.694,26 111.074,26 Z M114.904,9.79 L117.774,4.86 C120.374,0.38 123.694,3.01 121.914,6.36 C120.544,8.93 118.524,9.72 114.904,9.79 Z" id="Shape" fill="#FFFFFF"></path>
                <path d="M259.214,19 L258.974,19.27 C257.255392,21.4498018 255.021704,23.1680236 252.474,24.27 C253.054,23.35 253.474,22.35 253.944,21.6 L257.874,14.86 C261.194,9.22 255.824,7.33 252.194,10.58 L252.914,9.35 L249.354,9.35 L243.794,19 L243.554,19.27 C242.194213,20.8379584 240.256378,21.787028 238.184,21.9 L241.534,16.12 C243.694,12.39 241.704,8.87 238.354,8.87 C235.614,8.87 233.494,9.96 231.444,13.52 L229.694,16.52 L228.234,19 L228.044,19.22 C225.474,22.22 222.984,24.56 221.404,24.56 C220.614,24.56 220.174,24.01 220.994,22.56 L226.124,13.56 C227.664,10.86 226.194,8.91 224.204,8.91 C222.664,8.91 221.024,9.76 219.204,11.61 L224.884,1.72 L221.324,1.72 L211.454,19 L211.254,19.23 C210.011519,20.6991983 208.582814,22.0001595 207.004,23.1 C208.134,19.71 207.894,14.51 210.084,9.96 L207.414,8.52 C205.944,10.52 202.724,15.19 199.514,18.95 L199.274,19.22 C196.704,22.22 194.214,24.56 192.634,24.56 C191.844,24.56 191.404,24.01 192.224,22.56 L195.784,16.33 C197.014,14.17 196.434,12.91 195.274,11.51 L193.274,9.12 C193.014102,8.84603392 192.876858,8.47811558 192.893834,8.10086754 C192.91081,7.7236195 193.080546,7.36951523 193.364,7.12 L193.474,7.03 L191.624,5.03 C189.624,6.84 189.434,8.86 190.704,10.5 L191.004,10.91 C189.434,13.13 187.314,16.14 185.004,18.91 L184.764,19.18 C182.194,22.18 178.914,24.52 176.414,24.52 C174.224,24.52 172.924,23.15 174.564,20.28 L174.904,19.66 C177.194,20.66 181.504,20.17 184.174,15.56 L184.684,14.67 C186.604,11.39 184.754,8.92 181.844,8.92 C179.026892,8.93443731 176.453463,10.5201629 175.174,13.03 L171.704,19 L171.494,19.24 C170.139276,20.814525 168.198462,21.7650542 166.124,21.87 L169.474,16.09 C170.257728,14.8611514 170.718628,13.4543736 170.814,12 C170.863256,11.2056307 170.594835,10.4242445 170.067819,9.82783561 C169.540804,9.23142675 168.798392,8.86888104 168.004,8.82 L167.594,8.82 C166.755224,8.8411419 165.942669,9.11664341 165.264,9.61 L169.784,1.78 L166.154,1.78 L156.184,19 L155.994,19.21 C153.424,22.21 150.934,24.55 149.354,24.55 C148.564,24.55 148.124,24 148.944,22.55 L152.504,16.32 C153.734,14.16 153.154,12.9 151.994,11.5 L149.994,9.11 C149.735323,8.83471787 149.599825,8.46601168 149.618689,8.08873445 C149.637553,7.71145721 149.809154,7.35810598 150.094,7.11 L150.204,7.02 L148.354,5.02 C146.354,6.83 146.164,8.85 147.434,10.49 L147.744,10.9 C146.174,13.12 144.044,16.13 141.744,18.9 L141.504,19.17 C138.934,22.17 136.444,24.51 134.864,24.51 C134.074,24.51 133.634,23.96 134.454,22.51 L140.204,12.45 L138.204,12.45 C138.071022,10.4814189 136.41673,8.96351808 134.444,9 C132.524,9 129.864,10.51 128.354,13.11 L123.354,21.73 C121.844,24.37 122.914,26.79 125.784,26.79 C127.224,26.79 129.004,25.87 130.714,24.46 C130.884,25.83 131.984,26.79 133.794,26.79 C136.734,26.79 140.124,23.64 143.064,20.22 C144.774,18.22 146.064,16.46 148.944,12.59 L149.424,13.17 C149.908299,13.7258751 149.992276,14.5256544 149.634,15.17 L145.874,21.7 C144.374,24.34 145.434,26.76 148.304,26.76 C150.364,26.76 152.644,25.21 154.844,23.11 C154.844,25.54 156.654,26.91 158.954,26.91 C161.352818,26.7833361 163.562441,25.568044 164.954,23.61 C165.217047,23.6273549 165.480953,23.6273549 165.744,23.61 C167.406444,23.5262839 169.024772,23.0462712 170.464,22.21 C170.274,24.78 172.144,26.73 175.284,26.73 C179.284,26.73 183.284,23.58 186.284,20.16 C187.994,18.16 189.284,16.4 192.164,12.53 L192.644,13.11 C193.128299,13.6658751 193.212276,14.4656544 192.854,15.11 L189.094,21.64 C187.584,24.28 188.654,26.7 191.524,26.7 C194.394,26.7 197.854,23.55 200.794,20.13 C202.794,17.8 204.594,15.31 205.854,13.63 C204.454,17.33 205.204,23.96 201.854,23.96 C201.091135,23.8844486 200.438577,23.3794929 200.174,22.66 L198.004,23.82 C198.474299,25.5700112 200.093305,26.7614334 201.904,26.69 C202.238323,26.6840436 202.572108,26.6606787 202.904,26.62 L203.004,26.62 C204.990436,26.2841488 206.866713,25.47464 208.474,24.26 L207.254,26.38 L210.844,26.38 L216.244,16.97 C221.724,10.09 224.144,10.97 222.604,13.62 L217.984,21.62 C216.474,24.25 217.544,26.68 220.414,26.68 C222.484,26.68 224.764,25.12 226.964,23.01 C226.964,27.55 233.254,28.43 237.114,23.56 L237.904,23.56 C239.224387,23.5067471 240.520365,23.1870044 241.714,22.62 L235.234,33.86 L238.824,33.86 L249.464,15.35 C253.464,9.94 255.934,11.93 255.004,13.54 L249.634,22.85 C249.435166,23.3878385 248.922415,23.7449474 248.349,23.7449474 C247.775585,23.7449474 247.262834,23.3878385 247.064,22.85 L245.064,23.85 C245.534299,25.6000112 247.153305,26.7914334 248.964,26.72 L249.174,26.72 C254.344,26.62 257.724,23.54 260.634,20.15 C260.344637,19.5830693 259.828689,19.165224 259.214,19 L259.214,19 Z M178.214,14 C180.264,10.48 183.894,11.06 181.774,14.75 L181.264,15.64 C179.554,18.55 177.264,18.48 175.924,18 L178.214,14 Z M132.604,19.61 C130.444,23 128.324,24.61 126.854,24.61 C126.064,24.61 125.624,24.06 126.444,22.61 L131.444,13.95 C133.364,10.63 137.154,11.49 135.444,14.7 L132.604,19.61 Z M159.394,24.47 C159.015558,24.5016226 158.641647,24.3699609 158.366511,24.1081997 C158.091376,23.8464386 157.94126,23.4795475 157.954,23.1 C158.004793,22.4416101 158.217796,21.8060362 158.574,21.25 L159.824,19 C160.009326,20.4985778 160.833305,21.8439243 162.084,22.69 C161.540281,23.6931035 160.522124,24.3492495 159.384,24.43 L159.394,24.47 Z M163.104,21 C162.104004,20.2384869 161.540001,19.0357779 161.594,17.78 C161.594,15.25 164.054,11.11 166.074,11.11 C166.464676,11.1123075 166.835492,11.2825145 167.091944,11.5772434 C167.348397,11.8719723 167.465715,12.2627552 167.414,12.65 C167.375989,13.4038569 167.141574,14.1346821 166.734,14.77 L163.104,21 Z M236.184,19.22 L236.004,19.22 C235.447043,19.2226459 234.91395,19.4464368 234.521998,19.8421399 C234.130045,20.237843 233.911342,20.7730435 233.914,21.33 C233.916682,21.7533936 234.034189,22.1681264 234.254,22.53 L234.254,22.6 C232.574,25.47 228.504,24.93 230.624,21.23 L233.324,16.54 L235.004,13.62 C237.504,9.38 240.924,11.05 238.764,14.75 L236.184,19.22 Z M0,73.257 L5.714,67.544 L11.426,73.259 L5.712,78.971 L0,73.257 Z M352.023,73.283 L357.737,67.57 L363.45,73.285 L357.735,78.997 L352.023,73.283 Z" id="Shape" fill="#FFFFFF"></path>
                <path d="M46.804,73.48 L48.884,73.48 L48.884,65.16 L52.154,65.16 L52.154,63.07 L46.804,63.07 L46.804,73.48 L46.804,73.48 Z M61.6940431,75 L61.6940431,62.32 C61.6833434,60.5871097 60.6913664,59.0100212 59.134,58.25 C59.4476357,58.8701646 59.6120062,59.5550414 59.614,60.25 L59.614,72.93 C59.6242298,74.2917811 59.0131184,75.5839505 57.954,76.44 C58.9828066,77.3954527 59.5815229,78.726334 59.614,80.13 L59.614,94.23 C59.5758894,96.7519341 57.5261997,98.7793928 55.004,98.79 L41.494,98.79 L41.494,100.87 L57.134,100.87 C59.6366954,100.83244 61.6564398,98.8126954 61.6940431,96.31 L61.6940431,82.21 C61.6548887,80.8015945 61.0448492,79.469615 60.004,78.52 C61.077115,77.6677485 61.7000114,76.3703548 61.6940431,75 L61.6940431,75 Z" id="Shape" fill="#636466"></path>
                <path d="M46.804,91.34 L48.884,91.34 L48.884,82.95 L52.154,82.95 L52.154,80.87 L46.804,80.87 L46.804,91.34 Z M79.814,91.34 L81.894,91.34 L81.894,65.16 L85.164,65.16 L85.164,63.07 L79.814,63.07 L79.814,91.34 L79.814,91.34 Z" id="Shape" fill="#636466"></path>
                <path d="M92.144,58.25 C92.4576357,58.8701646 92.6220062,59.5550414 92.624,60.25 L92.624,94.25 C92.5864398,96.7526954 90.5666954,98.7724398 88.064,98.81 L77.004,98.81 C76.3092173,98.8065435 75.6246716,98.6422526 75.004,98.33 C75.7640212,99.8873664 77.3411097,100.879343 79.074,100.89 L90.154,100.89 C92.6566954,100.85244 94.6764398,98.8326954 94.714,96.33 L94.714,62.33 C94.7029061,60.5919351 93.7068334,59.0106212 92.144,58.25 L92.144,58.25 Z M112.824,73.48 L114.904,73.48 L114.904,65.16 L118.184,65.16 L118.184,63.07 L112.824,63.07 L112.824,73.48 L112.824,73.48 Z M125.074,82.52 C126.654862,81.787151 127.665782,80.2024666 127.664,78.46 L127.664,62.32 C127.662903,60.5740221 126.664946,58.9819507 125.094,58.22 C125.404559,58.8412903 125.568753,59.5254348 125.574,60.22 L125.574,76.37 C125.585802,78.1121814 124.582073,79.7017444 123.004,80.44 L126.084,98.79 L120.404,98.79 L120.754,100.87 L128.144,100.87 L125.074,82.52 Z M115.654,80.87 L112.824,80.87 L112.824,98.79 L107.514,98.79 L107.514,100.88 L114.904,100.88 L114.904,82.95 L116.004,82.95 L115.654,80.87 Z M144.844,91.34 L146.934,91.34 L146.934,65.16 L150.204,65.16 L150.204,63.07 L144.844,63.07 L144.844,91.34 L144.844,91.34 Z" id="Shape" fill="#636466"></path>
                <path d="M157.184,58.25 C157.497986,58.8700361 157.662376,59.5549971 157.664,60.25 L157.664,94.25 C157.62644,96.7526954 155.606695,98.7724398 153.104,98.81 L142.004,98.81 C141.309174,98.8069066 140.624546,98.642596 140.004,98.33 C140.764021,99.8873664 142.34111,100.879343 144.074,100.89 L155.164,100.89 C157.666695,100.85244 159.68644,98.8326954 159.724,96.33 L159.724,62.33 C159.718545,60.598658 158.735168,59.0190596 157.184,58.25 L157.184,58.25 Z M177.854,91.34 L179.944,91.34 L179.944,65.16 L183.214,65.16 L183.214,63.07 L177.854,63.07 L177.854,91.34 L177.854,91.34 Z" id="Shape" fill="#636466"></path>
                <path d="M190.194,58.25 C190.507636,58.8701646 190.672006,59.5550414 190.674,60.25 L190.674,94.25 C190.63644,96.7526954 188.616695,98.7724398 186.114,98.81 L172.554,98.81 L172.554,100.89 L188.194,100.89 C190.696695,100.85244 192.71644,98.8326954 192.754,96.33 L192.754,62.33 C192.74478,60.5941818 191.752944,59.0134424 190.194,58.25 L190.194,58.25 Z M211.244,57.77 L211.244,98.79 L205.934,98.79 L205.934,100.88 L213.324,100.88 L213.324,57.77 L211.244,57.77 L211.244,57.77 Z M244.124,57.77 L244.124,98.79 L238.224,98.79 L238.814,100.88 L246.214,100.88 L246.214,57.77 L244.124,57.77 Z M231.314,79.95 L231.314,98.79 L226.014,98.79 L226.014,100.88 L233.404,100.88 L233.404,87.19 L231.314,79.95 L231.314,79.95 Z M263.584,83 L269.694,83 L269.694,80.87 L261.504,80.87 C260.809261,80.8661822 260.124797,80.7019107 259.504,80.39 C260.245697,81.9750437 261.834029,82.9911094 263.584,83 L263.584,83 Z M266.414,85.73 L264.324,86.21 L264.324,91.34 L266.414,91.34 L266.414,85.73 Z M276.664,58.25 C276.977636,58.8701646 277.142006,59.5550414 277.144,60.25 L277.144,69 L271.774,70.24 L271.774,72.8 L279.224,71.07 L279.224,62.32 C279.213343,60.5871097 278.221366,59.0100212 276.664,58.25 L276.664,58.25 Z" id="Shape" fill="#636466"></path>
                <path d="M276.664,76.05 C276.977636,76.6701646 277.142006,77.3550414 277.144,78.05 L277.144,94.25 C277.10644,96.7526954 275.086695,98.7724398 272.584,98.81 L261.494,98.81 C260.799217,98.8065435 260.114672,98.6422526 259.494,98.33 C260.254021,99.8873664 261.83111,100.879343 263.564,100.89 L274.644,100.89 C277.146695,100.85244 279.16644,98.8326954 279.204,96.33 L279.204,80.12 C279.197103,78.3915918 278.213589,76.8156469 276.664,76.05 Z M264.324,63.07 L264.324,73.48 L266.414,73.48 L266.414,65.16 L269.684,65.16 L269.684,63.07 L264.324,63.07 L264.324,63.07 Z M298.014,80.87 L297.334,80.87 L297.334,98.79 L292.034,98.79 L292.034,100.88 L299.424,100.88 L299.424,85.35 L298.014,80.87 L298.014,80.87 Z M313.154,57.77 L310.404,57.77 L304.174,77.18 L311.074,98.79 L305.064,98.79 L305.644,100.63 L305.704,100.88 L313.154,100.88 L306.254,79.26 L313.154,57.77 L313.154,57.77 Z M330.534,57.77 L330.534,98.79 L325.234,98.79 L325.234,100.88 L332.614,100.88 L332.614,57.77 L330.534,57.77 L330.534,57.77 Z" id="Shape" fill="#636466"></path>
                <path d="M167.904,123.85 L169.314,123.85 C174.744,124.13 179.004,125.58 181.704,128.57 C184.444,125.57 188.704,124.11 194.164,123.85 L195.514,123.85 C207.624,124.67 213.144,133.35 222.814,137.04 C224.316611,137.724857 225.952889,138.06646 227.604,138.04 C230.084,137.77 231.664,135.26 231.344,132.46 C231.004,129.46 228.064,126.85 224.784,128.29 C224.352616,128.490434 223.957296,128.760738 223.614,129.09 C223.364,129.32 223.084,129.92 222.444,129.7 C221.844,129.2 222.444,128.47 222.754,128.05 C223.965918,125.894823 226.375804,124.703775 228.824,125.05 C234.454,125.45 239.494,130.39 238.634,137.87 C236.714,149 226.534,152 214.464,153 L210.534,153 C200.000229,152.572787 189.895809,148.709436 181.764,142 C173.567939,148.685506 163.431086,152.543824 152.864,153 L149.004,153 C136.844,151.93 126.564,149 124.774,137.54 C124.094,129.38 128.954,125.37 134.594,124.96 C137.060839,124.614976 139.490165,125.801944 140.734,127.96 C141.014,128.42 141.534,129.13 141.044,129.68 C140.434,129.79 140.134,129.31 139.874,129.07 C139.13557,128.300442 138.120389,127.85765 137.054,127.84 C133.194,127.7 130.974,131.99 132.514,135.45 C133.126201,136.816065 134.400582,137.769014 135.884,137.97 C137.533334,137.978312 139.165758,137.637514 140.674,136.97 C142.018736,136.454848 143.314031,135.818915 144.544,135.07 C151.894,130.81 157.644,124.76 167.904,123.85 L167.904,123.85 Z" id="Shape" fill="#FFFFFF"></path>
                <path d="M361.638,82.906 L367.351,77.192 L369.437,79.277 L363.724,84.992 L361.638,82.906 Z M9.671,82.95 L15.384,77.236 L17.47,79.322 L11.757,85.035 L9.671,82.95 Z" id="Shape" fill="#636466"></path>
                <path d="M55.654,69 C55.6575551,70.3496078 55.05115,71.6285713 54.004,72.48 C55.0328066,73.4354527 55.6315229,74.766334 55.664,76.17 L55.664,90.27 C55.6264398,92.7726954 53.6066954,94.7924398 51.104,94.83 L35.454,94.83 L35.454,51.72 L51.094,51.72 C53.6056095,51.7363628 55.6376372,53.7683905 55.654,56.28 L55.654,69 Z M48.204,59.11 L42.844,59.11 L42.844,69.52 L48.204,69.52 L48.204,59.11 Z M48.204,76.91 L42.844,76.91 L42.844,87.38 L48.204,87.38 L48.204,76.91 Z M84.104,51.719989 C86.6156095,51.7363628 88.6476372,53.7683905 88.664,56.28 L88.664,90.28 C88.6264398,92.7826954 86.6066954,94.8024398 84.104,94.84 L73.004,94.84 C70.4923905,94.8236372 68.4603628,92.7916095 68.443989,90.28 L68.443989,56.28 C68.4413373,55.0697985 68.9209094,53.9083969 69.7766531,53.0526531 C70.6323969,52.1969094 71.7937985,51.7173373 73.004,51.719989 L84.104,51.719989 Z M81.204,59.11 L75.854,59.11 L75.854,87.38 L81.214,87.38 L81.204,59.11 Z M114.714,94.83 L111.714,76.91 L108.884,76.91 L108.884,94.83 L101.494,94.83 L101.494,51.72 L117.134,51.72 C118.335439,51.7279302 119.484517,52.2128189 120.328436,53.0679906 C121.172356,53.9231622 121.641983,55.0785614 121.634,56.28 L121.634,72.42 C121.628614,74.171761 120.600478,75.7589221 119.004,76.48 L122.084,94.83 L114.714,94.83 Z M114.224,59.11 L108.864,59.11 L108.864,69.52 L114.224,69.52 L114.224,59.11 Z M149.144,51.72 C151.65561,51.7363628 153.687637,53.7683905 153.704,56.28 L153.704,90.28 C153.66644,92.7826954 151.646695,94.8024398 149.144,94.84 L138.064,94.84 C135.55239,94.8236372 133.520363,92.7916095 133.503988,90.28 L133.503988,56.28 C133.49836,53.7826064 135.506751,51.7474376 138.004,51.72 L149.104,51.72 L149.144,51.72 Z M146.244,59.11 L140.884,59.11 L140.884,87.38 L146.244,87.38 L146.244,59.11 Z M182.154,51.72 C184.66561,51.7363628 186.697637,53.7683905 186.714,56.28 L186.714,90.28 C186.67644,92.7826954 184.656695,94.8024398 182.154,94.84 L166.514,94.84 L166.514,51.72 L182.154,51.72 Z M179.264,59.11 L173.904,59.11 L173.904,87.38 L179.264,87.38 L179.264,59.11 Z M199.894,51.72 L207.284,51.72 L207.284,94.83 L199.894,94.83 L199.894,51.72 Z M240.174,51.72 L240.174,94.83 L232.784,94.83 L227.364,76 L227.364,94.83 L220.004,94.83 L220.004,51.72 L227.334,51.72 L232.754,69.39 L232.754,51.72 L240.174,51.72 Z M268.624,69.52 C271.13561,69.5363628 273.167637,71.5683905 273.184,74.08 L273.184,90.28 C273.14644,92.7826954 271.126695,94.8024398 268.624,94.84 L257.544,94.84 C255.040204,94.8127764 253.020218,92.7838912 253.003989,90.28 L253.003989,81.41 L260.394,79.69 L260.394,87.39 L265.754,87.39 L265.754,76.91 L257.564,76.91 C256.357264,76.9126551 255.198899,76.4358259 254.343732,75.5844101 C253.488565,74.7329944 253.006649,73.5767359 253.003989,72.37 L253.003989,56.28 C253.001345,55.0732641 253.478174,53.9148985 254.32959,53.059732 C255.181006,52.2045655 256.337264,51.7226493 257.544,51.72 L268.644,51.72 C271.15561,51.7363628 273.187637,53.7683905 273.204,56.28 L273.204,65 L265.754,66.73 L265.754,59.11 L260.394,59.11 L260.394,69.52 L268.624,69.52 Z M300.224,73.22 L307.124,94.84 L299.674,94.84 L299.614,94.59 L294.074,76.92 L293.394,76.92 L293.394,94.83 L286.004,94.83 L286.004,51.72 L293.394,51.72 L293.394,69.52 L294.004,69.52 L299.674,51.72 L307.184,51.72 L300.224,73.22 Z M319.194,51.72 L326.584,51.72 L326.584,94.83 L319.194,94.83 L319.194,51.72 Z" id="Shape" fill="#FFFFFF"></path>
            </g>
        </g>
    </g>
</svg>